<svg xmlns="http://www.w3.org/2000/svg" width="100" height="100"><g><g style="text-align:start;line-height:125%;-inkscape-font-specification:Helvetica Neue LT Com" font-size="61.997" letter-spacing="0" word-spacing="0" font-family="Helvetica Neue LT Com"><path d="M25.865 58.806h1.577V70.2h5.196V71.6h-6.773V58.806"/><path d="M33.81 58.806h1.575v12.792H33.81V58.806"/><path d="M39.025 64.324h1.81c.167 0 .37-.018.61-.054.25-.035.488-.125.715-.268.24-.144.436-.36.592-.645.167-.287.25-.675.25-1.165 0-.68-.173-1.2-.52-1.56-.334-.357-.895-.536-1.683-.536h-1.775v4.228m-1.577-5.518h3.924c.418 0 .824.053 1.218.16.394.108.74.294 1.04.556.31.25.555.586.734 1.004.19.418.287.937.287 1.56 0 .285-.04.572-.125.86-.083.285-.21.548-.376.787-.156.24-.353.448-.592.627-.227.18-.484.31-.77.394v.036c.788.19 1.36.567 1.72 1.13.37.56.555 1.235.555 2.023 0 1.302-.358 2.24-1.075 2.813-.705.562-1.726.842-3.064.842h-3.476V58.806m1.577 11.502h2.15c.418 0 .77-.065 1.057-.197.287-.13.514-.303.68-.518.18-.215.305-.466.377-.753.083-.287.124-.586.124-.897 0-.442-.065-.812-.197-1.11-.13-.31-.31-.562-.537-.753-.227-.203-.496-.346-.806-.43-.3-.096-.62-.143-.968-.143h-1.88v4.8"/><path d="M48.333 64.61h1.56c.226 0 .49-.01.787-.035.31-.024.604-.113.878-.27.275-.154.502-.4.68-.733.192-.335.288-.813.288-1.434 0-.645-.197-1.146-.59-1.505-.396-.358-.97-.537-1.72-.537h-1.883v4.515m-1.576-5.804h4.138c1.016 0 1.816.28 2.4.842.587.56.88 1.35.88 2.365 0 .346-.037.693-.108 1.04-.06.345-.168.668-.323.967-.155.286-.358.543-.61.77-.25.215-.56.364-.93.448v.036c.56.06.99.292 1.29.7.31.405.483.882.52 1.432l.106 2.186c.012.358.036.65.072.878.036.227.084.418.143.573.06.143.126.257.198.34.083.084.173.156.268.215h-1.898c-.072-.07-.13-.18-.18-.322-.047-.143-.09-.3-.124-.466-.036-.18-.066-.358-.09-.537-.012-.192-.024-.365-.036-.52l-.107-1.99c-.036-.44-.12-.78-.25-1.02-.12-.25-.27-.436-.45-.555-.178-.132-.375-.21-.59-.233-.204-.036-.407-.054-.61-.054h-2.132V71.6h-1.576V58.806"/><path d="M56.065 58.806h6.61v1.397h-5.033v4.014h4.748v1.397h-4.748V70.2h5.25V71.6h-6.827V58.806"/></g><path d="M73.694 54.48c-.445.408-1.247.257-1.79-.337-.545-.595-.625-1.407-.18-1.815.446-.408 1.248-.257 1.792.337.544.594.624 1.407.178 1.815z"/><g><g fill="#d40000" font-size="62.87" letter-spacing="0" word-spacing="0" font-family="Helvetica Neue LT Com"><path style="text-align:start;line-height:125%;-inkscape-font-specification:Helvetica Neue LT Com" d="M12.753 51.07h3.49l-1.655-6.27h-.036l-1.8 6.27m.782-8.104h2.144l3.49 12.973h-1.673l-.926-3.562h-4.144l-.963 3.56H9.79l3.744-12.972"/><path style="text-align:start;line-height:125%;-inkscape-font-specification:Helvetica Neue LT Com" d="M27.437 51.488c-.036.617-.133 1.21-.29 1.78-.146.557-.37 1.054-.673 1.49-.302.436-.702.788-1.2 1.054-.483.254-1.077.382-1.78.382-.92 0-1.66-.194-2.216-.582-.545-.4-.963-.92-1.254-1.562-.29-.642-.484-1.363-.58-2.163-.086-.8-.128-1.61-.128-2.434 0-.812.048-1.617.145-2.417.098-.81.298-1.538.6-2.18.303-.642.727-1.157 1.272-1.545.546-.398 1.266-.598 2.163-.598 1.32 0 2.277.35 2.87 1.054.606.702.927 1.696.963 2.98h-1.67c-.013-.364-.056-.71-.128-1.036-.073-.34-.194-.63-.364-.872-.157-.255-.375-.455-.654-.6-.266-.145-.606-.218-1.017-.218-.558 0-1 .145-1.327.436-.327.28-.58.666-.763 1.163-.17.484-.285 1.06-.345 1.725-.05.654-.073 1.357-.073 2.108 0 .75.024 1.46.073 2.126.06.653.176 1.228.345 1.725.182.484.436.872.763 1.162.327.28.77.418 1.327.418.484 0 .872-.103 1.162-.31.29-.204.515-.47.673-.798.17-.327.278-.69.327-1.09.06-.4.097-.8.11-1.2h1.67"/><path style="text-align:start;line-height:125%;-inkscape-font-specification:Helvetica Neue LT Com" d="M36.877 51.488c-.036.617-.133 1.21-.29 1.78-.146.557-.37 1.054-.673 1.49-.303.436-.703.788-1.2 1.054-.484.254-1.077.382-1.78.382-.92 0-1.66-.194-2.217-.582-.545-.4-.962-.92-1.253-1.562-.29-.642-.485-1.363-.582-2.163-.084-.8-.127-1.61-.127-2.434 0-.812.05-1.617.146-2.417.097-.81.297-1.538.6-2.18.303-.642.727-1.157 1.272-1.545.545-.398 1.266-.598 2.162-.598 1.32 0 2.277.35 2.87 1.054.607.702.928 1.696.964 2.98h-1.672c-.012-.364-.054-.71-.127-1.036-.074-.34-.195-.63-.364-.872-.158-.255-.376-.455-.654-.6-.267-.145-.606-.218-1.018-.218-.557 0-1 .145-1.326.436-.327.28-.582.666-.763 1.163-.17.484-.285 1.06-.346 1.725-.05.654-.073 1.357-.073 2.108 0 .75.024 1.46.072 2.126.06.653.175 1.228.345 1.725.18.484.436.872.763 1.162.327.28.77.418 1.326.418.485 0 .872-.103 1.163-.31.29-.204.515-.47.672-.798.17-.327.278-.69.326-1.09.06-.4.097-.8.11-1.2h1.67"/><path style="text-align:start;line-height:125%;-inkscape-font-specification:Helvetica Neue LT Com" d="M38.376 42.966h6.705v1.417h-5.105v4.07h4.815v1.418h-4.815v4.652H45.3v1.417h-6.924V42.965"/><path style="text-align:start;line-height:125%;-inkscape-font-specification:Helvetica Neue LT Com" d="M52.292 46.328c0-.34-.036-.648-.11-.927-.06-.29-.168-.532-.326-.726-.157-.206-.37-.363-.636-.472-.254-.12-.57-.182-.945-.182-.69 0-1.223.182-1.6.545-.362.35-.544.872-.544 1.563 0 .605.153 1.072.456 1.4.302.326.678.586 1.126.78.46.194.95.37 1.472.527.533.145 1.023.345 1.472.6.46.254.84.605 1.144 1.053.303.45.454 1.066.454 1.854 0 .75-.127 1.374-.38 1.87-.243.498-.558.89-.946 1.182-.388.29-.824.497-1.308.618-.472.12-.94.182-1.4.182-.762 0-1.398-.097-1.907-.29-.497-.195-.896-.474-1.2-.837-.29-.363-.502-.81-.635-1.344-.12-.546-.182-1.163-.182-1.854h1.6c0 .363.017.726.054 1.09.036.35.133.672.29.962.158.29.4.527.727.71.327.17.78.253 1.363.253.315 0 .612-.054.89-.163.28-.11.515-.26.71-.454.205-.206.362-.45.47-.727.122-.278.183-.593.183-.944 0-.46-.09-.836-.273-1.126-.17-.29-.4-.533-.69-.727-.28-.206-.606-.37-.98-.49-.365-.134-.74-.267-1.128-.4-.375-.134-.75-.28-1.126-.437-.364-.17-.69-.38-.98-.636-.28-.266-.51-.6-.692-1-.17-.4-.254-.895-.254-1.49 0-.302.042-.653.127-1.053.085-.41.26-.805.527-1.18.28-.376.666-.69 1.163-.945.496-.267 1.157-.4 1.98-.4 1.248 0 2.156.303 2.726.908.58.594.884 1.496.908 2.708h-1.598"/><path style="text-align:start;line-height:125%;-inkscape-font-specification:Helvetica Neue LT Com" d="M58.713 44.02c-.557 0-1 .145-1.327.436-.327.28-.58.666-.763 1.163-.17.484-.284 1.06-.345 1.725-.048.654-.073 1.357-.073 2.108 0 .75.025 1.46.073 2.126.06.653.176 1.228.345 1.725.182.484.436.872.763 1.162.328.28.77.418 1.327.418.557 0 1-.14 1.326-.418.326-.29.575-.678.744-1.162.182-.497.297-1.072.345-1.726.06-.668.09-1.376.09-2.127 0-.75-.03-1.454-.09-2.108-.05-.666-.164-1.24-.346-1.726-.17-.498-.418-.885-.745-1.164-.328-.29-.77-.436-1.327-.436m0-1.308c.896 0 1.617.2 2.162.6.545.387.97.902 1.272 1.544.303.642.503 1.37.6 2.18.096.8.145 1.605.145 2.417 0 .823-.05 1.635-.146 2.434-.096.8-.296 1.52-.6 2.163-.302.642-.726 1.162-1.27 1.562-.546.388-1.267.582-2.163.582-.897 0-1.617-.194-2.162-.582-.544-.4-.968-.92-1.27-1.562-.304-.642-.504-1.363-.6-2.163-.098-.8-.146-1.61-.146-2.434 0-.812.048-1.617.145-2.417.096-.81.296-1.538.6-2.18.302-.642.726-1.157 1.27-1.545.546-.398 1.266-.598 2.163-.598"/></g><g style="text-align:start;line-height:125%;-inkscape-font-specification:Helvetica Neue LT Com" font-size="61.997" letter-spacing="0" word-spacing="0" font-family="Helvetica Neue LT Com"><path d="M25.865 58.806h1.577V70.2h5.196V71.6h-6.773V58.806"/><path d="M33.81 58.806h1.575v12.792H33.81V58.806"/><path d="M39.025 64.324h1.81c.167 0 .37-.018.61-.054.25-.035.488-.125.715-.268.24-.144.436-.36.592-.645.167-.287.25-.675.25-1.165 0-.68-.173-1.2-.52-1.56-.334-.357-.895-.536-1.683-.536h-1.775v4.228m-1.577-5.518h3.924c.418 0 .824.053 1.218.16.394.108.74.294 1.04.556.31.25.555.586.734 1.004.19.418.287.937.287 1.56 0 .285-.04.572-.125.86-.083.285-.21.548-.376.787-.156.24-.353.448-.592.627-.227.18-.484.31-.77.394v.036c.788.19 1.36.567 1.72 1.13.37.56.555 1.235.555 2.023 0 1.302-.358 2.24-1.075 2.813-.705.562-1.726.842-3.064.842h-3.476V58.806m1.577 11.502h2.15c.418 0 .77-.065 1.057-.197.287-.13.514-.303.68-.518.18-.215.305-.466.377-.753.083-.287.124-.586.124-.897 0-.442-.065-.812-.197-1.11-.13-.31-.31-.562-.537-.753-.227-.203-.496-.346-.806-.43-.3-.096-.62-.143-.968-.143h-1.88v4.8"/><path d="M48.333 64.61h1.56c.226 0 .49-.01.787-.035.31-.024.604-.113.878-.27.275-.154.502-.4.68-.733.192-.335.288-.813.288-1.434 0-.645-.197-1.146-.59-1.505-.396-.358-.97-.537-1.72-.537h-1.883v4.515m-1.576-5.804h4.138c1.016 0 1.816.28 2.4.842.587.56.88 1.35.88 2.365 0 .346-.037.693-.108 1.04-.06.345-.168.668-.323.967-.155.286-.358.543-.61.77-.25.215-.56.364-.93.448v.036c.56.06.99.292 1.29.7.31.405.483.882.52 1.432l.106 2.186c.012.358.036.65.072.878.036.227.084.418.143.573.06.143.126.257.198.34.083.084.173.156.268.215h-1.898c-.072-.07-.13-.18-.18-.322-.047-.143-.09-.3-.124-.466-.036-.18-.066-.358-.09-.537-.012-.192-.024-.365-.036-.52l-.107-1.99c-.036-.44-.12-.78-.25-1.02-.12-.25-.27-.436-.45-.555-.178-.132-.375-.21-.59-.233-.204-.036-.407-.054-.61-.054h-2.132V71.6h-1.576V58.806"/><path d="M56.065 58.806h6.61v1.397h-5.033v4.014h4.748v1.397h-4.748V70.2h5.25V71.6h-6.827V58.806"/></g><path d="M64.413 20.21l25.398.146v51.818H77.843v10.364l-1.083.625v-51.86l.832-.833z" stroke="#000" stroke-width="0.289"/></g><path d="M73.694 54.48c-.445.408-1.247.257-1.79-.337-.545-.595-.625-1.407-.18-1.815.446-.408 1.248-.257 1.792.337.544.594.624 1.407.178 1.815z"/></g></svg>