<svg xmlns="http://www.w3.org/2000/svg" width="100" height="100"><g><g style="text-align:start;line-height:125%;-inkscape-font-specification:Helvetica Neue LT Com" font-size="61.997" letter-spacing="0" word-spacing="0" font-family="Helvetica Neue LT Com"><path d="M25.865 58.806h1.577v11.395h5.196v1.398h-6.773v-12.793"/><path d="M33.809 58.806h1.577v12.793h-1.577v-12.793"/><path d="M39.025 64.324h1.81c.167 0 .37-.018.609-.054.251-.036.49-.125.717-.269.239-.143.436-.358.591-.645.167-.287.251-.675.251-1.165 0-.681-.173-1.2-.52-1.559-.334-.358-.896-.537-1.684-.538h-1.774v4.228m-1.577-5.518h3.924c.418 0 .824.054 1.218.161.394.108.741.293 1.039.555.311.251.555.585.735 1.003.191.418.287.938.287 1.559 0 .287-.042.573-.125.86-.084.287-.209.549-.376.788-.155.239-.352.448-.591.627-.227.179-.484.311-.77.394v.036c.788.191 1.362.567 1.72 1.129.37.561.555 1.236.555 2.025 0 1.302-.358 2.24-1.075 2.813-.705.561-1.726.842-3.064.842h-3.476v-12.793m1.577 11.503h2.15c.418 0 .77-.066 1.057-.197.287-.131.514-.305.681-.52.179-.215.305-.466.376-.753.084-.287.125-.585.125-.896 0-.442-.066-.812-.197-1.111-.131-.311-.311-.561-.538-.753-.227-.203-.496-.346-.806-.43-.299-.096-.621-.143-.968-.143h-1.881v4.802"/><path d="M48.333 64.611h1.559c.227 0 .49-.012.788-.036.311-.024.603-.113.878-.269.275-.155.502-.4.681-.735.191-.334.287-.812.287-1.433 0-.645-.197-1.147-.591-1.505-.394-.358-.968-.537-1.72-.538h-1.881v4.515m-1.577-5.805h4.139c1.015 0 1.816.281 2.401.842.585.561.878 1.35.878 2.365 0 .346-.036.693-.108 1.039-.06.346-.167.669-.322.968-.155.287-.358.543-.609.77-.251.215-.561.364-.932.448v.036c.561.06.991.293 1.29.699.311.406.484.884.52 1.433l.108 2.186c.012.358.036.651.072.878.036.227.084.418.143.573.06.143.125.257.197.34.084.084.173.155.269.215h-1.899c-.072-.072-.131-.179-.179-.323-.048-.143-.09-.299-.125-.466l-.09-.538-.036-.52-.108-1.989c-.036-.442-.119-.782-.251-1.021-.119-.251-.269-.436-.448-.555-.179-.131-.376-.209-.591-.233-.203-.036-.406-.054-.609-.054h-2.132v5.698h-1.577v-12.793"/><path d="M56.065 58.806h6.611v1.398h-5.035v4.013h4.748v1.398h-4.748v4.587h5.25v1.398h-6.826v-12.793"/></g><path d="M73.694 54.48c-.446.408-1.248.257-1.792-.337-.544-.594-.624-1.407-.178-1.814.446-.408 1.248-.257 1.792.337.544.594.624 1.407.178 1.814z"/><g><g fill="#d40000" font-size="62.87" letter-spacing="0" word-spacing="0" font-family="Helvetica Neue LT Com"><path style="text-align:start;line-height:125%;-inkscape-font-specification:Helvetica Neue LT Com" d="M12.753 51.07h3.489l-1.653-6.268h-.036l-1.799 6.268m.781-8.104h2.144l3.489 12.973h-1.672l-.927-3.561h-4.143l-.963 3.561h-1.672l3.743-12.973"/><path style="text-align:start;line-height:125%;-inkscape-font-specification:Helvetica Neue LT Com" d="M27.437 51.488c-.036.618-.133 1.211-.291 1.781-.145.557-.369 1.054-.672 1.49-.303.436-.703.787-1.199 1.054-.485.254-1.078.382-1.781.382-.921 0-1.659-.194-2.217-.581-.545-.4-.963-.921-1.254-1.563-.291-.642-.485-1.363-.581-2.162-.085-.799-.127-1.611-.127-2.435 0-.812.048-1.617.145-2.417.097-.812.297-1.538.6-2.18.303-.642.727-1.157 1.272-1.544.545-.4 1.266-.6 2.162-.6 1.32 0 2.277.351 2.871 1.054.606.703.927 1.696.963 2.98h-1.672c-.012-.363-.055-.709-.127-1.036-.073-.339-.194-.63-.363-.872-.157-.254-.376-.454-.654-.6-.266-.145-.606-.218-1.017-.218-.557 0-.999.145-1.326.436-.327.279-.581.666-.763 1.163-.17.485-.285 1.06-.345 1.726-.048.654-.073 1.357-.073 2.108 0 .751.024 1.46.073 2.126.061.654.176 1.229.345 1.726.182.485.436.872.763 1.163.327.279.769.418 1.326.418.485 0 .872-.103 1.163-.309.291-.206.515-.472.672-.799.17-.327.279-.69.327-1.09.061-.4.097-.799.109-1.199h1.672"/><path style="text-align:start;line-height:125%;-inkscape-font-specification:Helvetica Neue LT Com" d="M36.877 51.488c-.036.618-.133 1.211-.291 1.781-.145.557-.369 1.054-.672 1.49-.303.436-.703.787-1.199 1.054-.485.254-1.078.382-1.781.382-.921 0-1.659-.194-2.217-.581-.545-.4-.963-.921-1.254-1.563-.291-.642-.485-1.363-.581-2.162-.085-.799-.127-1.611-.127-2.435 0-.812.048-1.617.145-2.417.097-.812.297-1.538.6-2.18.303-.642.727-1.157 1.272-1.544.545-.4 1.266-.6 2.162-.6 1.32 0 2.277.351 2.871 1.054.606.703.927 1.696.963 2.98h-1.672c-.012-.363-.055-.709-.127-1.036-.073-.339-.194-.63-.363-.872-.157-.254-.376-.454-.654-.6-.266-.145-.606-.218-1.017-.218-.557 0-.999.145-1.326.436-.327.279-.581.666-.763 1.163-.17.485-.285 1.06-.345 1.726-.048.654-.073 1.357-.073 2.108 0 .751.024 1.46.073 2.126.061.654.176 1.229.345 1.726.182.485.436.872.763 1.163.327.279.769.418 1.326.418.485 0 .872-.103 1.163-.309.291-.206.515-.472.672-.799.17-.327.279-.69.327-1.09.061-.4.097-.799.109-1.199h1.672"/><path style="text-align:start;line-height:125%;-inkscape-font-specification:Helvetica Neue LT Com" d="M38.376 42.966h6.704v1.417h-5.106v4.07h4.815v1.417h-4.815v4.651h5.324v1.417h-6.923v-12.973"/><path style="text-align:start;line-height:125%;-inkscape-font-specification:Helvetica Neue LT Com" d="M52.292 46.328c0-.339-.036-.648-.109-.927-.061-.291-.17-.533-.327-.727-.157-.206-.369-.363-.636-.472-.254-.121-.569-.182-.945-.182-.69 0-1.223.182-1.599.545-.363.351-.545.872-.545 1.563 0 .606.151 1.072.454 1.399.303.327.678.587 1.126.781.46.194.951.369 1.472.527.533.145 1.024.345 1.472.6.46.254.842.606 1.145 1.054.303.448.454 1.066.454 1.853 0 .751-.127 1.375-.382 1.871-.242.497-.557.89-.945 1.181-.388.291-.824.497-1.308.618-.472.121-.939.182-1.399.182-.763 0-1.399-.097-1.908-.291-.497-.194-.896-.472-1.199-.836-.291-.363-.503-.812-.636-1.345-.121-.545-.182-1.163-.182-1.853h1.599c0 .363.018.727.055 1.09.036.351.133.672.291.963.157.291.4.527.727.709.327.17.781.254 1.363.254.315 0 .612-.055.89-.164.279-.109.515-.26.709-.454.206-.206.363-.448.472-.727.121-.279.182-.594.182-.945 0-.46-.091-.836-.273-1.127-.17-.291-.4-.533-.69-.727-.279-.206-.606-.369-.981-.491-.363-.133-.739-.266-1.127-.4-.375-.133-.751-.279-1.126-.436-.363-.17-.69-.382-.981-.636-.279-.266-.509-.6-.69-.999-.17-.4-.254-.896-.254-1.49 0-.303.042-.654.127-1.054.085-.412.26-.805.527-1.181.279-.375.666-.69 1.163-.945.497-.266 1.157-.4 1.98-.4 1.248 0 2.156.303 2.725.908.581.594.884 1.496.908 2.707h-1.599"/><path style="text-align:start;line-height:125%;-inkscape-font-specification:Helvetica Neue LT Com" d="M58.713 44.02c-.557 0-.999.145-1.326.436-.327.279-.581.666-.763 1.163-.17.485-.285 1.06-.345 1.726-.048.654-.073 1.357-.073 2.108 0 .751.024 1.46.073 2.126.061.654.176 1.229.345 1.726.182.485.436.872.763 1.163.327.279.769.418 1.326.418s.999-.139 1.326-.418c.327-.291.575-.678.745-1.163.182-.497.297-1.072.345-1.726.061-.666.091-1.375.091-2.126 0-.751-.03-1.454-.091-2.108-.048-.666-.164-1.242-.345-1.726-.17-.497-.418-.884-.745-1.163-.327-.291-.769-.436-1.326-.436m0-1.308c.896 0 1.617.2 2.162.6.545.388.969.902 1.272 1.544.303.642.503 1.369.6 2.18.097.799.145 1.605.145 2.417 0 .824-.048 1.635-.145 2.435-.097.799-.297 1.52-.6 2.162-.303.642-.727 1.163-1.272 1.563-.545.388-1.266.581-2.162.581-.896 0-1.617-.194-2.162-.581-.545-.4-.969-.921-1.272-1.563-.303-.642-.503-1.363-.6-2.162-.097-.799-.145-1.611-.145-2.435 0-.812.048-1.617.145-2.417.097-.812.297-1.538.6-2.18.303-.642.727-1.157 1.272-1.544.545-.4 1.266-.6 2.162-.6"/></g><g style="text-align:start;line-height:125%;-inkscape-font-specification:Helvetica Neue LT Com" font-size="61.997" letter-spacing="0" word-spacing="0" font-family="Helvetica Neue LT Com"><path d="M25.865 58.806h1.577v11.395h5.196v1.398h-6.773v-12.793"/><path d="M33.809 58.806h1.577v12.793h-1.577v-12.793"/><path d="M39.025 64.324h1.81c.167 0 .37-.018.609-.054.251-.036.49-.125.717-.269.239-.143.436-.358.591-.645.167-.287.251-.675.251-1.165 0-.681-.173-1.2-.52-1.559-.334-.358-.896-.537-1.684-.538h-1.774v4.228m-1.577-5.518h3.924c.418 0 .824.054 1.218.161.394.108.741.293 1.039.555.311.251.555.585.735 1.003.191.418.287.938.287 1.559 0 .287-.042.573-.125.86-.084.287-.209.549-.376.788-.155.239-.352.448-.591.627-.227.179-.484.311-.77.394v.036c.788.191 1.362.567 1.72 1.129.37.561.555 1.236.555 2.025 0 1.302-.358 2.24-1.075 2.813-.705.561-1.726.842-3.064.842h-3.476v-12.793m1.577 11.503h2.15c.418 0 .77-.066 1.057-.197.287-.131.514-.305.681-.52.179-.215.305-.466.376-.753.084-.287.125-.585.125-.896 0-.442-.066-.812-.197-1.111-.131-.311-.311-.561-.538-.753-.227-.203-.496-.346-.806-.43-.299-.096-.621-.143-.968-.143h-1.881v4.802"/><path d="M48.333 64.611h1.559c.227 0 .49-.012.788-.036.311-.024.603-.113.878-.269.275-.155.502-.4.681-.735.191-.334.287-.812.287-1.433 0-.645-.197-1.147-.591-1.505-.394-.358-.968-.537-1.72-.538h-1.881v4.515m-1.577-5.805h4.139c1.015 0 1.816.281 2.401.842.585.561.878 1.35.878 2.365 0 .346-.036.693-.108 1.039-.06.346-.167.669-.322.968-.155.287-.358.543-.609.77-.251.215-.561.364-.932.448v.036c.561.06.991.293 1.29.699.311.406.484.884.52 1.433l.108 2.186c.012.358.036.651.072.878.036.227.084.418.143.573.06.143.125.257.197.34.084.084.173.155.269.215h-1.899c-.072-.072-.131-.179-.179-.323-.048-.143-.09-.299-.125-.466l-.09-.538-.036-.52-.108-1.989c-.036-.442-.119-.782-.251-1.021-.119-.251-.269-.436-.448-.555-.179-.131-.376-.209-.591-.233-.203-.036-.406-.054-.609-.054h-2.132v5.698h-1.577v-12.793"/><path d="M56.065 58.806h6.611v1.398h-5.035v4.013h4.748v1.398h-4.748v4.587h5.25v1.398h-6.826v-12.793"/></g><path d="M64.413 20.21l25.398.146v51.818h-11.969v10.364l-1.082.625v-51.859l.833-.833z" stroke="#000" stroke-width="0.289"/></g><path d="M73.694 54.48c-.446.408-1.248.257-1.792-.337-.544-.594-.624-1.407-.178-1.814.446-.408 1.248-.257 1.792.337.544.594.624 1.407.178 1.814z"/></g></svg>